<?xml version="1.0" encoding="utf-8"?>
<!-- Generator: Adobe Illustrator 16.0.0, SVG Export Plug-In . SVG Version: 6.00 Build 0)  -->
<!DOCTYPE svg PUBLIC "-//W3C//DTD SVG 1.1//EN" "http://www.w3.org/Graphics/SVG/1.1/DTD/svg11.dtd">
<svg version="1.1" id="Layer_1" xmlns="http://www.w3.org/2000/svg" xmlns:xlink="http://www.w3.org/1999/xlink" x="0px" y="0px"
	 width="100px" height="100px" viewBox="0 0 100 100" enable-background="new 0 0 100 100" xml:space="preserve">
<g>
	<polygon fill="none" stroke="#FFFFFF" stroke-miterlimit="10" points="33.245,79.023 25.468,74.533 20.978,66.756 20.978,57.777 
		25.468,50 33.245,45.511 42.225,45.511 50.001,50 54.49,57.777 54.49,66.756 50.001,74.533 42.225,79.023 	"/>
	<polygon fill="none" stroke="#FFFFFF" stroke-miterlimit="10" points="50.001,83.514 41.021,83.514 33.245,79.023 28.755,71.246 
		28.755,62.267 33.245,54.489 41.021,50 50.001,50 57.777,54.489 62.268,62.268 62.268,71.246 57.777,79.023 	"/>
	<polygon fill="none" stroke="#FFFFFF" stroke-miterlimit="10" points="66.758,79.023 58.98,83.514 50.001,83.514 42.225,79.023 
		37.734,71.246 37.734,62.268 42.225,54.489 50.001,50 58.98,49.999 66.758,54.49 71.246,62.266 71.246,71.246 	"/>
	<polygon fill="none" stroke="#FFFFFF" stroke-miterlimit="10" points="79.023,66.756 74.533,74.531 66.758,79.023 57.777,79.023 
		50.001,74.531 45.512,66.756 45.511,57.777 50.001,50 57.777,45.511 66.758,45.511 74.533,49.999 79.023,57.777 	"/>
	<polygon fill="none" stroke="#FFFFFF" stroke-miterlimit="10" points="83.514,49.999 83.514,58.98 79.023,66.756 71.246,71.246 
		62.268,71.246 54.492,66.756 50,58.98 50.001,50 54.49,42.224 62.268,37.733 71.246,37.733 79.023,42.224 	"/>
	<polygon fill="none" stroke="#FFFFFF" stroke-miterlimit="10" points="79.023,33.243 83.514,41.021 83.514,49.999 79.023,57.777 
		71.246,62.266 62.27,62.268 54.49,57.777 50.001,50 50,41.021 54.49,33.244 62.268,28.754 71.246,28.754 	"/>
	<polygon fill="none" stroke="#FFFFFF" stroke-miterlimit="10" points="66.758,20.977 74.533,25.466 79.023,33.244 79.023,42.224 
		74.533,49.999 66.758,54.489 57.777,54.489 50.001,50 45.511,42.224 45.512,33.244 50,25.466 57.777,20.978 	"/>
	<polygon fill="none" stroke="#FFFFFF" stroke-miterlimit="10" points="50.001,16.486 58.98,16.487 66.758,20.977 71.246,28.754 
		71.246,37.733 66.758,45.509 58.98,50 50.001,50 42.225,45.511 37.734,37.733 37.734,28.754 42.225,20.978 	"/>
	<polygon fill="none" stroke="#FFFFFF" stroke-miterlimit="10" points="33.245,20.977 41.021,16.487 50,16.487 57.777,20.978 
		62.268,28.754 62.27,37.732 57.777,45.511 50.001,50 41.021,50 33.245,45.509 28.755,37.733 28.755,28.754 	"/>
	<polygon fill="none" stroke="#FFFFFF" stroke-miterlimit="10" points="20.978,33.244 25.468,25.468 33.245,20.978 42.225,20.978 
		50,25.468 54.49,33.243 54.49,42.224 50.001,50 42.225,54.489 33.245,54.489 25.468,50 20.979,42.224 	"/>
	<polygon fill="none" stroke="#FFFFFF" stroke-miterlimit="10" points="16.488,49.999 16.488,41.021 20.978,33.244 28.755,28.754 
		37.734,28.754 45.511,33.243 50.001,41.021 50.001,50 45.511,57.777 37.734,62.266 28.755,62.268 20.979,57.777 	"/>
	<polygon fill="none" stroke="#FFFFFF" stroke-miterlimit="10" points="20.978,66.756 16.488,58.98 16.488,50 20.979,42.224 
		28.755,37.734 37.733,37.732 45.511,42.224 50.001,50 50,58.98 45.511,66.756 37.734,71.246 28.755,71.246 	"/>
	<polygon fill="none" stroke="#FFFFFF" stroke-miterlimit="10" points="33.244,79.023 25.469,74.531 20.979,66.756 20.979,57.777 
		25.469,50 33.243,45.509 42.224,45.511 50.001,50 54.49,57.777 54.49,66.756 50.001,74.531 42.225,79.023 	"/>
	<polygon fill="none" stroke="#FFFFFF" stroke-miterlimit="10" points="50,83.514 41.021,83.512 33.245,79.021 28.755,71.246 
		28.755,62.266 33.243,54.489 41.021,50 50.001,50 57.777,54.489 62.268,62.266 62.27,71.244 57.777,79.023 	"/>
	<polygon fill="none" stroke="#FFFFFF" stroke-miterlimit="10" points="66.758,79.023 58.98,83.512 50.001,83.512 42.225,79.023 
		37.734,71.244 37.734,62.268 42.225,54.49 50.001,50 58.98,50 66.758,54.489 71.246,62.266 71.246,71.246 	"/>
	<polygon fill="none" stroke="#FFFFFF" stroke-miterlimit="10" points="79.023,66.756 74.533,74.531 66.758,79.021 57.777,79.023 
		50.001,74.531 45.511,66.758 45.512,57.777 50.001,50 57.777,45.511 66.758,45.511 74.533,49.999 79.023,57.777 	"/>
	<polygon fill="none" stroke="#FFFFFF" stroke-miterlimit="10" points="83.514,50 83.514,58.98 79.023,66.756 71.246,71.246 
		62.268,71.244 54.49,66.758 50.001,58.98 50.001,50 54.49,42.224 62.268,37.733 71.246,37.732 79.023,42.224 	"/>
	<polygon fill="none" stroke="#FFFFFF" stroke-miterlimit="10" points="79.023,33.244 83.514,41.021 83.512,50 79.023,57.777 
		71.246,62.266 62.27,62.268 54.492,57.777 50.001,50 50.001,41.021 54.49,33.244 62.268,28.753 71.246,28.754 	"/>
	<polygon fill="none" stroke="#FFFFFF" stroke-miterlimit="10" points="66.758,20.977 74.533,25.466 79.023,33.244 79.023,42.224 
		74.533,50 66.758,54.489 57.779,54.488 50.001,50 45.511,42.224 45.512,33.244 50,25.466 57.777,20.978 	"/>
	<polygon fill="none" stroke="#FFFFFF" stroke-miterlimit="10" points="50.001,16.486 58.98,16.487 66.758,20.978 71.246,28.754 
		71.246,37.734 66.758,45.509 58.98,49.999 50.001,50 42.224,45.511 37.734,37.733 37.734,28.754 42.225,20.978 	"/>
	<polygon fill="none" stroke="#FFFFFF" stroke-miterlimit="10" points="33.245,20.977 41.021,16.487 50.001,16.488 57.777,20.978 
		62.268,28.754 62.27,37.732 57.777,45.509 50.001,50 41.021,50 33.245,45.509 28.754,37.733 28.755,28.754 	"/>
	<polygon fill="none" stroke="#FFFFFF" stroke-miterlimit="10" points="20.978,33.243 25.468,25.468 33.245,20.978 42.225,20.978 
		50.001,25.468 54.49,33.243 54.49,42.223 50.001,50 42.225,54.49 33.245,54.489 25.468,50 20.979,42.224 	"/>
	<polygon fill="none" stroke="#FFFFFF" stroke-miterlimit="10" points="16.487,49.999 16.488,41.021 20.979,33.244 28.755,28.754 
		37.734,28.754 45.511,33.243 50,41.02 50.001,50 45.512,57.777 37.734,62.266 28.755,62.268 20.979,57.777 	"/>
	<polygon fill="none" stroke="#FFFFFF" stroke-miterlimit="10" points="20.977,66.756 16.488,58.98 16.489,49.999 20.979,42.224 
		28.755,37.733 37.733,37.732 45.511,42.224 50.001,50 50.001,58.98 45.511,66.756 37.734,71.246 28.755,71.246 	"/>
	<polygon fill="none" stroke="#FFFFFF" stroke-miterlimit="10" points="33.243,79.023 25.469,74.531 20.979,66.756 20.979,57.777 
		25.469,49.999 33.243,45.509 42.224,45.511 50.001,50 54.492,57.777 54.49,66.756 50.001,74.533 42.225,79.023 	"/>
	<polygon fill="none" stroke="#FFFFFF" stroke-miterlimit="10" points="50,83.514 41.021,83.512 33.245,79.021 28.755,71.246 
		28.755,62.266 33.243,54.489 41.021,50.001 50.001,50 57.779,54.488 62.268,62.266 62.27,71.246 57.777,79.023 	"/>
	<polygon fill="none" stroke="#FFFFFF" stroke-miterlimit="10" points="66.758,79.023 58.98,83.512 50,83.512 42.225,79.023 
		37.734,71.244 37.734,62.268 42.225,54.492 50.001,50 58.98,49.999 66.758,54.489 71.248,62.266 71.246,71.246 	"/>
	<polygon fill="none" stroke="#FFFFFF" stroke-miterlimit="10" points="79.023,66.758 74.533,74.531 66.756,79.023 57.777,79.023 
		50,74.531 45.511,66.758 45.512,57.777 50.001,50 57.777,45.509 66.758,45.511 74.535,49.999 79.023,57.777 	"/>
	<polygon fill="none" stroke="#FFFFFF" stroke-miterlimit="10" points="83.514,50 83.514,58.98 79.023,66.756 71.246,71.246 
		62.268,71.246 54.49,66.758 50.001,58.98 50.001,50 54.49,42.223 62.268,37.733 71.246,37.732 79.023,42.224 	"/>
</g>
</svg>
