<?xml version="1.0" encoding="utf-8"?>
<!-- Generator: Adobe Illustrator 16.0.0, SVG Export Plug-In . SVG Version: 6.00 Build 0)  -->
<!DOCTYPE svg PUBLIC "-//W3C//DTD SVG 1.1//EN" "http://www.w3.org/Graphics/SVG/1.1/DTD/svg11.dtd">
<svg version="1.1" id="Layer_1" xmlns="http://www.w3.org/2000/svg" xmlns:xlink="http://www.w3.org/1999/xlink" x="0px" y="0px"
	 width="107.859px" height="24.83px" viewBox="0 0 107.859 24.83" enable-background="new 0 0 107.859 24.83" xml:space="preserve">
<g>
	<path d="M4.904,2.987c0.94,0,1.86,0.18,2.721,0.54c0.84,0.36,1.58,0.86,2.22,1.5c0.66,0.66,1.16,1.4,1.5,2.24
		c0.38,0.86,0.56,1.78,0.56,2.721c0,0.96-0.18,1.88-0.56,2.741c-0.34,0.84-0.84,1.58-1.5,2.22c-0.64,0.64-1.38,1.16-2.22,1.5
		c-0.86,0.38-1.781,0.56-2.721,0.56H2.083v-0.02h-1.14V2.987H4.904z M3.744,5.788v7.321l3.141-6.821c-0.58-0.32-1.26-0.5-1.98-0.5
		H3.744z M4.904,14.209c2.32,0,4.201-1.9,4.201-4.221c0-1.1-0.42-2.121-1.12-2.861l-3.281,7.082H4.904z"/>
	<path d="M23.065,8.388v8.622h-2.121v-0.84c-0.8,0.68-1.84,1.081-2.96,1.081c-2.541,0-4.581-2.041-4.581-4.561
		c0-2.541,2.041-4.561,4.581-4.561c1.12,0,2.161,0.4,2.96,1.08l0.2-0.82H23.065z M20.544,12.689c0-0.62-0.22-1.22-0.66-1.661
		c-0.42-0.44-0.98-0.68-1.581-0.68s-1.16,0.24-1.6,0.68c-0.42,0.44-0.66,1.041-0.66,1.661s0.24,1.2,0.66,1.66
		c0.44,0.44,1,0.68,1.6,0.68s1.161-0.24,1.581-0.68C20.324,13.889,20.544,13.309,20.544,12.689z"/>
	<path d="M27.104,9.148c0.68-0.6,1.58-1,2.46-1c2.32,0,4.221,2.041,4.221,4.581v4.281h-2.44v-4.281c0-1.24-0.88-2.341-2.08-2.341
		c-1.201,0-2.081,1.101-2.081,2.341v4.281h-2.521V8.388h2.041L27.104,9.148z"/>
	<path d="M37.823,9.148c0.68-0.6,1.58-1,2.46-1c2.32,0,4.221,2.041,4.221,4.581v4.281h-2.44v-4.281c0-1.24-0.88-2.341-2.08-2.341
		c-1.201,0-2.081,1.101-2.081,2.341v4.281h-2.521V8.388h2.041L37.823,9.148z"/>
	<path d="M49.404,16.47l-4.201-8.082h2.881l2.84,4.781l2.641-4.781h2.801l-7.742,14.883h-2.801L49.404,16.47z"/>
	<path d="M75.865,2.987l-4.561,8.882v5.141h-2.801v-5.141l-4.581-8.882h3.101l2.881,5.281l2.86-5.281H75.865z"/>
	<path d="M85.224,8.388v8.622h-2.12v-0.84c-0.8,0.68-1.84,1.081-2.961,1.081c-2.54,0-4.58-2.041-4.58-4.561
		c0-2.541,2.04-4.561,4.58-4.561c1.121,0,2.161,0.4,2.961,1.08l0.2-0.82H85.224z M82.704,12.689c0-0.62-0.22-1.22-0.66-1.661
		c-0.42-0.44-0.979-0.68-1.58-0.68c-0.6,0-1.16,0.24-1.601,0.68c-0.42,0.44-0.66,1.041-0.66,1.661s0.24,1.2,0.66,1.66
		c0.44,0.44,1.001,0.68,1.601,0.68c0.601,0,1.16-0.24,1.58-0.68C82.484,13.889,82.704,13.309,82.704,12.689z"/>
	<path d="M89.262,9.148c0.681-0.6,1.581-1,2.461-1c2.32,0,4.221,2.041,4.221,4.581v4.281h-2.44v-4.281c0-1.24-0.88-2.341-2.08-2.341
		s-2.081,1.101-2.081,2.341v4.281h-2.521V8.388h2.041L89.262,9.148z"/>
	<path d="M105.284,9.748c0.62,0.66,1,1.541,1,2.5c0,2.161-1.9,3.901-4.261,3.901c-0.32,0-0.62-0.04-0.92-0.1
		c-0.181,0.32-0.36,0.68-0.501,1.041c0.461-0.06,0.961-0.1,1.521-0.1c1.601,0,2.781,0.26,3.621,0.78c0.88,0.56,1.36,1.42,1.36,2.42
		c0,1.04-0.44,1.86-1.301,2.42c-0.819,0.52-2.021,0.78-3.681,0.78s-2.86-0.26-3.681-0.78c-0.86-0.56-1.3-1.38-1.3-2.42
		c0-0.4,0.08-0.78,0.24-1.14c0.399-1.34,1.319-2.821,1.979-3.761c-0.939-0.72-1.56-1.82-1.56-3.041c0-2.16,1.9-3.9,4.221-3.9
		c0.2,0,0.4,0.02,0.6,0.04l4.121-0.78v1.66L105.284,9.748z M104.643,20.19c0-0.6-1.02-0.92-2.521-0.92
		c-1.58,0-2.521,0.38-2.521,0.92c0,0.64,0.921,0.92,2.521,0.92C103.843,21.111,104.643,20.831,104.643,20.19z M100.222,12.249
		c0,0.98,0.9,1.661,1.801,1.661c1.04,0,1.82-0.8,1.82-1.661c0-0.94-0.82-1.66-1.82-1.66
		C101.002,10.588,100.222,11.389,100.222,12.249z"/>
</g>
</svg>
